<svg xmlns="http://www.w3.org/2000/svg" width="1354.436" height="281.696" viewBox="0 0 1354.436 281.696"><g transform="translate(-12.123 -12.123)" opacity="0.21"><circle cx="3.028" cy="3.028" r="3.028" transform="translate(12.123 12.123)" fill="#004143"/><circle cx="3.028" cy="3.028" r="3.028" transform="translate(42.427 12.123)" fill="#004143"/><circle cx="3.028" cy="3.028" r="3.028" transform="translate(72.73 12.123)" fill="#004143"/><circle cx="3.028" cy="3.028" r="3.028" transform="translate(103.034 12.123)" fill="#004143"/><circle cx="3.028" cy="3.028" r="3.028" transform="translate(133.337 12.123)" fill="#004143"/><circle cx="3.028" cy="3.028" r="3.028" transform="translate(163.641 12.123)" fill="#004143"/><circle cx="3.028" cy="3.028" r="3.028" transform="translate(193.944 12.123)" fill="#004143"/><circle cx="3.028" cy="3.028" r="3.028" transform="translate(306.815 12.123)" fill="#004143"/><circle cx="3.028" cy="3.028" r="3.028" transform="translate(348.913 12.123)" fill="#004143"/><circle cx="3.028" cy="3.028" r="3.028" transform="translate(391.012 12.123)" fill="#004143"/><circle cx="3.028" cy="3.028" r="3.028" transform="translate(433.096 12.123)" fill="#004143"/><circle cx="3.028" cy="3.028" r="3.028" transform="translate(475.195 12.123)" fill="#004143"/><circle cx="3.028" cy="3.028" r="3.028" transform="translate(517.294 12.123)" fill="#004143"/><circle cx="3.028" cy="3.028" r="3.028" transform="translate(559.392 12.123)" fill="#004143"/><circle cx="3.028" cy="3.028" r="3.028" transform="translate(601.491 12.123)" fill="#004143"/><circle cx="3.028" cy="3.028" r="3.028" transform="translate(643.59 12.123)" fill="#004143"/><circle cx="3.028" cy="3.028" r="3.028" transform="translate(685.688 12.123)" fill="#004143"/><circle cx="3.028" cy="3.028" r="3.028" transform="translate(727.787 12.123)" fill="#004143"/><circle cx="3.028" cy="3.028" r="3.028" transform="translate(769.886 12.123)" fill="#004143"/><circle cx="3.028" cy="3.028" r="3.028" transform="translate(811.985 12.123)" fill="#004143"/><circle cx="3.028" cy="3.028" r="3.028" transform="translate(854.083 12.123)" fill="#004143"/><circle cx="3.028" cy="3.028" r="3.028" transform="translate(896.182 12.123)" fill="#004143"/><circle cx="3.028" cy="3.028" r="3.028" transform="translate(938.281 12.123)" fill="#004143"/><circle cx="3.028" cy="3.028" r="3.028" transform="translate(980.379 12.123)" fill="#004143"/><circle cx="3.028" cy="3.028" r="3.028" transform="translate(1022.478 12.123)" fill="#004143"/><circle cx="3.028" cy="3.028" r="3.028" transform="translate(1064.577 12.123)" fill="#004143"/><circle cx="3.028" cy="3.028" r="3.028" transform="translate(1177.793 12.123)" fill="#004143"/><circle cx="3.028" cy="3.028" r="3.028" transform="translate(1208.097 12.123)" fill="#004143"/><circle cx="3.028" cy="3.028" r="3.028" transform="translate(1238.4 12.123)" fill="#004143"/><circle cx="3.028" cy="3.028" r="3.028" transform="translate(1268.703 12.123)" fill="#004143"/><circle cx="3.028" cy="3.028" r="3.028" transform="translate(1299.007 12.123)" fill="#004143"/><circle cx="3.028" cy="3.028" r="3.028" transform="translate(1329.311 12.123)" fill="#004143"/><circle cx="3.028" cy="3.028" r="3.028" transform="translate(1359.614 12.123)" fill="#004143"/><circle cx="3.028" cy="3.028" r="3.028" transform="translate(12.123 42.427)" fill="#004143"/><circle cx="3.243" cy="3.243" r="3.243" transform="translate(42.218 42.218)" fill="#004143"/><circle cx="3.452" cy="3.452" r="3.452" transform="translate(72.302 41.998)" fill="#004143"/><circle cx="3.666" cy="3.666" r="3.666" transform="translate(102.396 41.789)" fill="#004143"/><circle cx="3.876" cy="3.876" r="3.876" transform="translate(132.49 41.58)" fill="#004143"/><circle cx="4.09" cy="4.09" r="4.09" transform="translate(162.584 41.37)" fill="#004143"/><circle cx="4.299" cy="4.299" r="4.299" transform="translate(192.668 41.151)" fill="#004143"/><circle cx="4.514" cy="4.514" r="4.514" transform="translate(305.003 40.942)" fill="#004143"/><circle cx="4.723" cy="4.723" r="4.723" transform="translate(346.887 40.732)" fill="#004143"/><circle cx="4.932" cy="4.932" r="4.932" transform="translate(388.768 40.523)" fill="#004143"/><circle cx="5.146" cy="5.146" r="5.146" transform="translate(430.674 40.304)" fill="#004143"/><circle cx="5.356" cy="5.356" r="5.356" transform="translate(472.59 40.094)" fill="#004143"/><circle cx="5.57" cy="5.57" r="5.57" transform="translate(514.517 39.885)" fill="#004143"/><circle cx="5.779" cy="5.779" r="5.779" transform="translate(556.438 39.676)" fill="#004143"/><circle cx="5.941" cy="5.941" r="5.941" transform="translate(598.442 39.519)" fill="#004143"/><circle cx="5.941" cy="5.941" r="5.941" transform="translate(640.612 39.519)" fill="#004143"/><circle cx="5.941" cy="5.941" r="5.941" transform="translate(682.781 39.519)" fill="#004143"/><circle cx="5.941" cy="5.941" r="5.941" transform="translate(724.951 39.519)" fill="#004143"/><circle cx="5.941" cy="5.941" r="5.941" transform="translate(767.121 39.519)" fill="#004143"/><circle cx="5.941" cy="5.941" r="5.941" transform="translate(809.291 39.519)" fill="#004143"/><circle cx="5.779" cy="5.779" r="5.779" transform="translate(851.6 39.676)" fill="#004143"/><circle cx="5.57" cy="5.57" r="5.57" transform="translate(893.95 39.885)" fill="#004143"/><circle cx="5.356" cy="5.356" r="5.356" transform="translate(936.301 40.094)" fill="#004143"/><circle cx="5.146" cy="5.146" r="5.146" transform="translate(978.63 40.304)" fill="#004143"/><circle cx="4.932" cy="4.932" r="4.932" transform="translate(1020.945 40.523)" fill="#004143"/><circle cx="4.723" cy="4.723" r="4.723" transform="translate(1063.254 40.732)" fill="#004143"/><circle cx="4.514" cy="4.514" r="4.514" transform="translate(1176.308 40.942)" fill="#004143"/><circle cx="4.299" cy="4.299" r="4.299" transform="translate(1206.831 41.151)" fill="#004143"/><circle cx="4.09" cy="4.09" r="4.09" transform="translate(1237.344 41.37)" fill="#004143"/><circle cx="3.876" cy="3.876" r="3.876" transform="translate(1267.856 41.58)" fill="#004143"/><circle cx="3.666" cy="3.666" r="3.666" transform="translate(1298.369 41.789)" fill="#004143"/><circle cx="3.452" cy="3.452" r="3.452" transform="translate(1328.882 41.998)" fill="#004143"/><circle cx="3.243" cy="3.243" r="3.243" transform="translate(1359.405 42.218)" fill="#004143"/><circle cx="3.028" cy="3.028" r="3.028" transform="translate(12.123 72.73)" fill="#004143"/><circle cx="3.452" cy="3.452" r="3.452" transform="translate(41.998 72.302)" fill="#004143"/><circle cx="3.876" cy="3.876" r="3.876" transform="translate(71.883 71.883)" fill="#004143"/><circle cx="4.299" cy="4.299" r="4.299" transform="translate(101.758 71.454)" fill="#004143"/><circle cx="4.723" cy="4.723" r="4.723" transform="translate(131.643 71.036)" fill="#004143"/><circle cx="5.146" cy="5.146" r="5.146" transform="translate(161.518 70.607)" fill="#004143"/><circle cx="5.57" cy="5.57" r="5.57" transform="translate(191.403 70.189)" fill="#004143"/><circle cx="5.994" cy="5.994" r="5.994" transform="translate(303.188 69.77)" fill="#004143"/><circle cx="6.417" cy="6.417" r="6.417" transform="translate(344.859 69.341)" fill="#004143"/><circle cx="6.841" cy="6.841" r="6.841" transform="translate(386.537 68.923)" fill="#004143"/><circle cx="7.259" cy="7.259" r="7.259" transform="translate(428.248 68.494)" fill="#004143"/><circle cx="7.683" cy="7.683" r="7.683" transform="translate(469.967 68.076)" fill="#004143"/><circle cx="8.107" cy="8.107" r="8.107" transform="translate(511.722 67.647)" fill="#004143"/><circle cx="8.53" cy="8.53" r="8.53" transform="translate(553.497 67.228)" fill="#004143"/><circle cx="8.849" cy="8.849" r="8.849" transform="translate(595.389 66.915)" fill="#004143"/><circle cx="8.849" cy="8.849" r="8.849" transform="translate(637.63 66.915)" fill="#004143"/><circle cx="8.849" cy="8.849" r="8.849" transform="translate(679.872 66.915)" fill="#004143"/><circle cx="8.849" cy="8.849" r="8.849" transform="translate(722.114 66.915)" fill="#004143"/><circle cx="8.849" cy="8.849" r="8.849" transform="translate(764.356 66.915)" fill="#004143"/><circle cx="8.849" cy="8.849" r="8.849" transform="translate(806.598 66.915)" fill="#004143"/><circle cx="8.53" cy="8.53" r="8.53" transform="translate(849.12 67.228)" fill="#004143"/><circle cx="8.107" cy="8.107" r="8.107" transform="translate(891.733 67.647)" fill="#004143"/><circle cx="7.683" cy="7.683" r="7.683" transform="translate(934.31 68.076)" fill="#004143"/><circle cx="7.259" cy="7.259" r="7.259" transform="translate(976.88 68.494)" fill="#004143"/><circle cx="6.841" cy="6.841" r="6.841" transform="translate(1019.418 68.923)" fill="#004143"/><circle cx="6.417" cy="6.417" r="6.417" transform="translate(1061.933 69.341)" fill="#004143"/><circle cx="5.994" cy="5.994" r="5.994" transform="translate(1174.833 69.77)" fill="#004143"/><circle cx="5.57" cy="5.57" r="5.57" transform="translate(1205.555 70.189)" fill="#004143"/><circle cx="5.146" cy="5.146" r="5.146" transform="translate(1236.287 70.607)" fill="#004143"/><circle cx="4.723" cy="4.723" r="4.723" transform="translate(1267.009 71.036)" fill="#004143"/><circle cx="4.299" cy="4.299" r="4.299" transform="translate(1297.741 71.454)" fill="#004143"/><circle cx="3.876" cy="3.876" r="3.876" transform="translate(1328.463 71.883)" fill="#004143"/><circle cx="3.452" cy="3.452" r="3.452" transform="translate(1359.185 72.302)" fill="#004143"/><circle cx="3.028" cy="3.028" r="3.028" transform="translate(12.123 103.034)" fill="#004143"/><circle cx="3.666" cy="3.666" r="3.666" transform="translate(41.789 102.396)" fill="#004143"/><circle cx="4.299" cy="4.299" r="4.299" transform="translate(71.454 101.758)" fill="#004143"/><circle cx="4.932" cy="4.932" r="4.932" transform="translate(101.13 101.13)" fill="#004143"/><circle cx="5.57" cy="5.57" r="5.57" transform="translate(130.796 100.492)" fill="#004143"/><circle cx="6.203" cy="6.203" r="6.203" transform="translate(160.461 99.854)" fill="#004143"/><circle cx="6.841" cy="6.841" r="6.841" transform="translate(190.137 99.226)" fill="#004143"/><circle cx="7.474" cy="7.474" r="7.474" transform="translate(301.386 98.588)" fill="#004143"/><circle cx="8.107" cy="8.107" r="8.107" transform="translate(342.828 97.95)" fill="#004143"/><circle cx="8.745" cy="8.745" r="8.745" transform="translate(384.302 97.323)" fill="#004143"/><circle cx="9.378" cy="9.378" r="9.378" transform="translate(425.821 96.685)" fill="#004143"/><circle cx="10.011" cy="10.011" r="10.011" transform="translate(467.356 96.046)" fill="#004143"/><circle cx="10.649" cy="10.649" r="10.649" transform="translate(508.925 95.419)" fill="#004143"/><circle cx="11.281" cy="11.281" r="11.281" transform="translate(550.539 94.781)" fill="#004143"/><circle cx="11.757" cy="11.757" r="11.757" transform="translate(592.334 94.3)" fill="#004143"/><circle cx="11.757" cy="11.757" r="11.757" transform="translate(634.649 94.3)" fill="#004143"/><circle cx="11.757" cy="11.757" r="11.757" transform="translate(676.963 94.3)" fill="#004143"/><circle cx="11.757" cy="11.757" r="11.757" transform="translate(719.278 94.3)" fill="#004143"/><circle cx="11.757" cy="11.757" r="11.757" transform="translate(761.593 94.3)" fill="#004143"/><circle cx="11.757" cy="11.757" r="11.757" transform="translate(803.908 94.3)" fill="#004143"/><circle cx="11.281" cy="11.281" r="11.281" transform="translate(846.643 94.781)" fill="#004143"/><circle cx="10.649" cy="10.649" r="10.649" transform="translate(889.507 95.419)" fill="#004143"/><circle cx="10.011" cy="10.011" r="10.011" transform="translate(932.336 96.046)" fill="#004143"/><circle cx="9.378" cy="9.378" r="9.378" transform="translate(975.122 96.685)" fill="#004143"/><circle cx="8.745" cy="8.745" r="8.745" transform="translate(1017.892 97.323)" fill="#004143"/><circle cx="8.107" cy="8.107" r="8.107" transform="translate(1060.626 97.95)" fill="#004143"/><circle cx="7.474" cy="7.474" r="7.474" transform="translate(1173.347 98.588)" fill="#004143"/><circle cx="6.841" cy="6.841" r="6.841" transform="translate(1204.289 99.226)" fill="#004143"/><circle cx="6.203" cy="6.203" r="6.203" transform="translate(1235.231 99.854)" fill="#004143"/><circle cx="5.57" cy="5.57" r="5.57" transform="translate(1266.162 100.492)" fill="#004143"/><circle cx="4.932" cy="4.932" r="4.932" transform="translate(1297.103 101.13)" fill="#004143"/><circle cx="4.299" cy="4.299" r="4.299" transform="translate(1328.034 101.758)" fill="#004143"/><circle cx="3.666" cy="3.666" r="3.666" transform="translate(1358.976 102.396)" fill="#004143"/><circle cx="3.028" cy="3.028" r="3.028" transform="translate(12.123 133.337)" fill="#004143"/><circle cx="3.876" cy="3.876" r="3.876" transform="translate(41.58 132.49)" fill="#004143"/><circle cx="4.723" cy="4.723" r="4.723" transform="translate(71.036 131.643)" fill="#004143"/><circle cx="5.57" cy="5.57" r="5.57" transform="translate(100.492 130.796)" fill="#004143"/><circle cx="6.417" cy="6.417" r="6.417" transform="translate(129.948 129.948)" fill="#004143"/><circle cx="7.259" cy="7.259" r="7.259" transform="translate(159.405 129.101)" fill="#004143"/><circle cx="8.107" cy="8.107" r="8.107" transform="translate(188.861 128.254)" fill="#004143"/><circle cx="8.954" cy="8.954" r="8.954" transform="translate(299.567 127.406)" fill="#004143"/><circle cx="9.801" cy="9.801" r="9.801" transform="translate(340.795 126.559)" fill="#004143"/><circle cx="10.649" cy="10.649" r="10.649" transform="translate(382.064 125.722)" fill="#004143"/><circle cx="11.491" cy="11.491" r="11.491" transform="translate(423.375 124.875)" fill="#004143"/><circle cx="12.338" cy="12.338" r="12.338" transform="translate(464.743 124.028)" fill="#004143"/><circle cx="13.185" cy="13.185" r="13.185" transform="translate(506.139 123.18)" fill="#004143"/><circle cx="14.032" cy="14.032" r="14.032" transform="translate(547.578 122.333)" fill="#004143"/><circle cx="14.665" cy="14.665" r="14.665" transform="translate(589.277 121.695)" fill="#004143"/><circle cx="14.665" cy="14.665" r="14.665" transform="translate(631.666 121.695)" fill="#004143"/><circle cx="14.665" cy="14.665" r="14.665" transform="translate(674.054 121.695)" fill="#004143"/><circle cx="14.665" cy="14.665" r="14.665" transform="translate(716.443 121.695)" fill="#004143"/><circle cx="14.665" cy="14.665" r="14.665" transform="translate(758.831 121.695)" fill="#004143"/><circle cx="14.665" cy="14.665" r="14.665" transform="translate(801.22 121.695)" fill="#004143"/><circle cx="14.032" cy="14.032" r="14.032" transform="translate(844.17 122.333)" fill="#004143"/><circle cx="13.185" cy="13.185" r="13.185" transform="translate(887.282 123.18)" fill="#004143"/><circle cx="12.338" cy="12.338" r="12.338" transform="translate(930.352 124.028)" fill="#004143"/><circle cx="11.491" cy="11.491" r="11.491" transform="translate(973.379 124.875)" fill="#004143"/><circle cx="10.649" cy="10.649" r="10.649" transform="translate(1016.368 125.722)" fill="#004143"/><circle cx="9.801" cy="9.801" r="9.801" transform="translate(1059.311 126.559)" fill="#004143"/><circle cx="8.954" cy="8.954" r="8.954" transform="translate(1171.873 127.406)" fill="#004143"/><circle cx="8.107" cy="8.107" r="8.107" transform="translate(1203.023 128.254)" fill="#004143"/><circle cx="7.259" cy="7.259" r="7.259" transform="translate(1234.164 129.101)" fill="#004143"/><circle cx="6.417" cy="6.417" r="6.417" transform="translate(1265.314 129.948)" fill="#004143"/><circle cx="5.57" cy="5.57" r="5.57" transform="translate(1296.465 130.796)" fill="#004143"/><circle cx="4.723" cy="4.723" r="4.723" transform="translate(1327.616 131.643)" fill="#004143"/><circle cx="3.876" cy="3.876" r="3.876" transform="translate(1358.767 132.49)" fill="#004143"/><circle cx="3.028" cy="3.028" r="3.028" transform="translate(12.123 163.641)" fill="#004143"/><circle cx="3.912" cy="3.912" r="3.912" transform="translate(41.538 162.752)" fill="#004143"/><circle cx="4.791" cy="4.791" r="4.791" transform="translate(70.963 161.873)" fill="#004143"/><circle cx="5.675" cy="5.675" r="5.675" transform="translate(100.387 160.994)" fill="#004143"/><circle cx="6.559" cy="6.559" r="6.559" transform="translate(129.812 160.116)" fill="#004143"/><circle cx="7.437" cy="7.437" r="7.437" transform="translate(159.227 159.227)" fill="#004143"/><circle cx="8.321" cy="8.321" r="8.321" transform="translate(188.652 158.348)" fill="#004143"/><circle cx="9.2" cy="9.2" r="9.2" transform="translate(299.273 157.469)" fill="#004143"/><circle cx="10.084" cy="10.084" r="10.084" transform="translate(340.456 156.58)" fill="#004143"/><circle cx="10.962" cy="10.962" r="10.962" transform="translate(381.695 155.702)" fill="#004143"/><circle cx="11.846" cy="11.846" r="11.846" transform="translate(422.98 154.823)" fill="#004143"/><circle cx="12.725" cy="12.725" r="12.725" transform="translate(464.292 153.944)" fill="#004143"/><circle cx="13.609" cy="13.609" r="13.609" transform="translate(505.665 153.055)" fill="#004143"/><circle cx="14.493" cy="14.493" r="14.493" transform="translate(547.082 152.176)" fill="#004143"/><circle cx="15.152" cy="15.152" r="15.152" transform="translate(588.773 151.517)" fill="#004143"/><circle cx="15.152" cy="15.152" r="15.152" transform="translate(631.174 151.517)" fill="#004143"/><circle cx="15.152" cy="15.152" r="15.152" transform="translate(673.575 151.517)" fill="#004143"/><circle cx="15.152" cy="15.152" r="15.152" transform="translate(715.961 151.517)" fill="#004143"/><circle cx="15.152" cy="15.152" r="15.152" transform="translate(758.362 151.517)" fill="#004143"/><circle cx="15.152" cy="15.152" r="15.152" transform="translate(800.763 151.517)" fill="#004143"/><circle cx="14.493" cy="14.493" r="14.493" transform="translate(843.771 152.176)" fill="#004143"/><circle cx="13.609" cy="13.609" r="13.609" transform="translate(886.919 153.055)" fill="#004143"/><circle cx="12.725" cy="12.725" r="12.725" transform="translate(930.023 153.944)" fill="#004143"/><circle cx="11.846" cy="11.846" r="11.846" transform="translate(973.086 154.823)" fill="#004143"/><circle cx="10.962" cy="10.962" r="10.962" transform="translate(1016.117 155.702)" fill="#004143"/><circle cx="10.084" cy="10.084" r="10.084" transform="translate(1059.092 156.58)" fill="#004143"/><circle cx="9.2" cy="9.2" r="9.2" transform="translate(1171.621 157.469)" fill="#004143"/><circle cx="8.321" cy="8.321" r="8.321" transform="translate(1202.804 158.348)" fill="#004143"/><circle cx="7.437" cy="7.437" r="7.437" transform="translate(1233.996 159.227)" fill="#004143"/><circle cx="6.559" cy="6.559" r="6.559" transform="translate(1265.178 160.116)" fill="#004143"/><circle cx="5.675" cy="5.675" r="5.675" transform="translate(1296.361 160.994)" fill="#004143"/><circle cx="4.791" cy="4.791" r="4.791" transform="translate(1327.543 161.873)" fill="#004143"/><circle cx="3.912" cy="3.912" r="3.912" transform="translate(1358.735 162.752)" fill="#004143"/><circle cx="3.028" cy="3.028" r="3.028" transform="translate(12.123 193.944)" fill="#004143"/><circle cx="3.876" cy="3.876" r="3.876" transform="translate(41.58 193.097)" fill="#004143"/><circle cx="4.723" cy="4.723" r="4.723" transform="translate(71.036 192.25)" fill="#004143"/><circle cx="5.57" cy="5.57" r="5.57" transform="translate(100.492 191.403)" fill="#004143"/><circle cx="6.417" cy="6.417" r="6.417" transform="translate(129.948 190.555)" fill="#004143"/><circle cx="7.259" cy="7.259" r="7.259" transform="translate(159.405 189.708)" fill="#004143"/><circle cx="8.107" cy="8.107" r="8.107" transform="translate(188.861 188.861)" fill="#004143"/><circle cx="8.954" cy="8.954" r="8.954" transform="translate(299.567 188.013)" fill="#004143"/><circle cx="9.801" cy="9.801" r="9.801" transform="translate(340.795 187.166)" fill="#004143"/><circle cx="10.649" cy="10.649" r="10.649" transform="translate(382.064 186.319)" fill="#004143"/><circle cx="11.491" cy="11.491" r="11.491" transform="translate(423.375 185.482)" fill="#004143"/><circle cx="12.338" cy="12.338" r="12.338" transform="translate(464.743 184.635)" fill="#004143"/><circle cx="13.185" cy="13.185" r="13.185" transform="translate(506.139 183.787)" fill="#004143"/><circle cx="14.032" cy="14.032" r="14.032" transform="translate(547.578 182.94)" fill="#004143"/><circle cx="14.665" cy="14.665" r="14.665" transform="translate(589.277 182.302)" fill="#004143"/><circle cx="14.665" cy="14.665" r="14.665" transform="translate(631.666 182.302)" fill="#004143"/><circle cx="14.665" cy="14.665" r="14.665" transform="translate(674.054 182.302)" fill="#004143"/><circle cx="14.665" cy="14.665" r="14.665" transform="translate(716.443 182.302)" fill="#004143"/><circle cx="14.665" cy="14.665" r="14.665" transform="translate(758.831 182.302)" fill="#004143"/><circle cx="14.665" cy="14.665" r="14.665" transform="translate(801.22 182.302)" fill="#004143"/><circle cx="14.032" cy="14.032" r="14.032" transform="translate(844.17 182.94)" fill="#004143"/><circle cx="13.185" cy="13.185" r="13.185" transform="translate(887.282 183.787)" fill="#004143"/><circle cx="12.338" cy="12.338" r="12.338" transform="translate(930.352 184.635)" fill="#004143"/><circle cx="11.491" cy="11.491" r="11.491" transform="translate(973.379 185.482)" fill="#004143"/><circle cx="10.649" cy="10.649" r="10.649" transform="translate(1016.368 186.319)" fill="#004143"/><circle cx="9.801" cy="9.801" r="9.801" transform="translate(1059.311 187.166)" fill="#004143"/><circle cx="8.954" cy="8.954" r="8.954" transform="translate(1171.873 188.013)" fill="#004143"/><circle cx="8.107" cy="8.107" r="8.107" transform="translate(1203.023 188.861)" fill="#004143"/><circle cx="7.259" cy="7.259" r="7.259" transform="translate(1234.164 189.708)" fill="#004143"/><circle cx="6.417" cy="6.417" r="6.417" transform="translate(1265.314 190.555)" fill="#004143"/><circle cx="5.57" cy="5.57" r="5.57" transform="translate(1296.465 191.403)" fill="#004143"/><circle cx="4.723" cy="4.723" r="4.723" transform="translate(1327.616 192.25)" fill="#004143"/><circle cx="3.876" cy="3.876" r="3.876" transform="translate(1358.767 193.097)" fill="#004143"/><circle cx="3.028" cy="3.028" r="3.028" transform="translate(12.123 224.248)" fill="#004143"/><circle cx="3.666" cy="3.666" r="3.666" transform="translate(41.789 223.61)" fill="#004143"/><circle cx="4.299" cy="4.299" r="4.299" transform="translate(71.454 222.972)" fill="#004143"/><circle cx="4.932" cy="4.932" r="4.932" transform="translate(101.13 222.344)" fill="#004143"/><circle cx="5.57" cy="5.57" r="5.57" transform="translate(130.796 221.706)" fill="#004143"/><circle cx="6.203" cy="6.203" r="6.203" transform="translate(160.461 221.068)" fill="#004143"/><circle cx="6.841" cy="6.841" r="6.841" transform="translate(190.137 220.44)" fill="#004143"/><circle cx="7.474" cy="7.474" r="7.474" transform="translate(301.386 219.802)" fill="#004143"/><circle cx="8.107" cy="8.107" r="8.107" transform="translate(342.828 219.164)" fill="#004143"/><circle cx="8.745" cy="8.745" r="8.745" transform="translate(384.302 218.526)" fill="#004143"/><circle cx="9.378" cy="9.378" r="9.378" transform="translate(425.821 217.899)" fill="#004143"/><circle cx="10.011" cy="10.011" r="10.011" transform="translate(467.356 217.26)" fill="#004143"/><circle cx="10.649" cy="10.649" r="10.649" transform="translate(508.925 216.622)" fill="#004143"/><circle cx="11.281" cy="11.281" r="11.281" transform="translate(550.539 215.995)" fill="#004143"/><circle cx="11.757" cy="11.757" r="11.757" transform="translate(592.334 215.514)" fill="#004143"/><circle cx="11.757" cy="11.757" r="11.757" transform="translate(634.649 215.514)" fill="#004143"/><circle cx="11.757" cy="11.757" r="11.757" transform="translate(676.963 215.514)" fill="#004143"/><circle cx="11.757" cy="11.757" r="11.757" transform="translate(719.278 215.514)" fill="#004143"/><circle cx="11.757" cy="11.757" r="11.757" transform="translate(761.593 215.514)" fill="#004143"/><circle cx="11.757" cy="11.757" r="11.757" transform="translate(803.908 215.514)" fill="#004143"/><circle cx="11.281" cy="11.281" r="11.281" transform="translate(846.643 215.995)" fill="#004143"/><circle cx="10.649" cy="10.649" r="10.649" transform="translate(889.507 216.622)" fill="#004143"/><circle cx="10.011" cy="10.011" r="10.011" transform="translate(932.336 217.26)" fill="#004143"/><circle cx="9.378" cy="9.378" r="9.378" transform="translate(975.122 217.899)" fill="#004143"/><circle cx="8.745" cy="8.745" r="8.745" transform="translate(1017.892 218.526)" fill="#004143"/><circle cx="8.107" cy="8.107" r="8.107" transform="translate(1060.626 219.164)" fill="#004143"/><circle cx="7.474" cy="7.474" r="7.474" transform="translate(1173.347 219.802)" fill="#004143"/><circle cx="6.841" cy="6.841" r="6.841" transform="translate(1204.289 220.44)" fill="#004143"/><circle cx="6.203" cy="6.203" r="6.203" transform="translate(1235.231 221.068)" fill="#004143"/><circle cx="5.57" cy="5.57" r="5.57" transform="translate(1266.162 221.706)" fill="#004143"/><circle cx="4.932" cy="4.932" r="4.932" transform="translate(1297.103 222.344)" fill="#004143"/><circle cx="4.299" cy="4.299" r="4.299" transform="translate(1328.034 222.972)" fill="#004143"/><circle cx="3.666" cy="3.666" r="3.666" transform="translate(1358.976 223.61)" fill="#004143"/><circle cx="3.028" cy="3.028" r="3.028" transform="translate(12.123 254.551)" fill="#004143"/><circle cx="3.452" cy="3.452" r="3.452" transform="translate(41.998 254.123)" fill="#004143"/><circle cx="3.876" cy="3.876" r="3.876" transform="translate(71.883 253.704)" fill="#004143"/><circle cx="4.299" cy="4.299" r="4.299" transform="translate(101.758 253.275)" fill="#004143"/><circle cx="4.723" cy="4.723" r="4.723" transform="translate(131.643 252.857)" fill="#004143"/><circle cx="5.146" cy="5.146" r="5.146" transform="translate(161.518 252.428)" fill="#004143"/><circle cx="5.57" cy="5.57" r="5.57" transform="translate(191.403 252.01)" fill="#004143"/><circle cx="5.994" cy="5.994" r="5.994" transform="translate(303.188 251.581)" fill="#004143"/><circle cx="6.417" cy="6.417" r="6.417" transform="translate(344.859 251.162)" fill="#004143"/><circle cx="6.841" cy="6.841" r="6.841" transform="translate(386.537 250.733)" fill="#004143"/><circle cx="7.259" cy="7.259" r="7.259" transform="translate(428.248 250.315)" fill="#004143"/><circle cx="7.683" cy="7.683" r="7.683" transform="translate(469.967 249.897)" fill="#004143"/><circle cx="8.107" cy="8.107" r="8.107" transform="translate(511.722 249.468)" fill="#004143"/><circle cx="8.53" cy="8.53" r="8.53" transform="translate(553.497 249.049)" fill="#004143"/><circle cx="8.849" cy="8.849" r="8.849" transform="translate(595.389 248.725)" fill="#004143"/><circle cx="8.849" cy="8.849" r="8.849" transform="translate(637.63 248.725)" fill="#004143"/><circle cx="8.849" cy="8.849" r="8.849" transform="translate(679.872 248.725)" fill="#004143"/><circle cx="8.849" cy="8.849" r="8.849" transform="translate(722.114 248.725)" fill="#004143"/><circle cx="8.849" cy="8.849" r="8.849" transform="translate(764.356 248.725)" fill="#004143"/><circle cx="8.849" cy="8.849" r="8.849" transform="translate(806.598 248.725)" fill="#004143"/><circle cx="8.53" cy="8.53" r="8.53" transform="translate(849.12 249.049)" fill="#004143"/><circle cx="8.107" cy="8.107" r="8.107" transform="translate(891.733 249.468)" fill="#004143"/><circle cx="7.683" cy="7.683" r="7.683" transform="translate(934.31 249.897)" fill="#004143"/><circle cx="7.259" cy="7.259" r="7.259" transform="translate(976.88 250.315)" fill="#004143"/><circle cx="6.841" cy="6.841" r="6.841" transform="translate(1019.418 250.733)" fill="#004143"/><circle cx="6.417" cy="6.417" r="6.417" transform="translate(1061.933 251.162)" fill="#004143"/><circle cx="5.994" cy="5.994" r="5.994" transform="translate(1174.833 251.581)" fill="#004143"/><circle cx="5.57" cy="5.57" r="5.57" transform="translate(1205.555 252.01)" fill="#004143"/><circle cx="5.146" cy="5.146" r="5.146" transform="translate(1236.287 252.428)" fill="#004143"/><circle cx="4.723" cy="4.723" r="4.723" transform="translate(1267.009 252.857)" fill="#004143"/><circle cx="4.299" cy="4.299" r="4.299" transform="translate(1297.741 253.275)" fill="#004143"/><circle cx="3.876" cy="3.876" r="3.876" transform="translate(1328.463 253.704)" fill="#004143"/><circle cx="3.452" cy="3.452" r="3.452" transform="translate(1359.185 254.123)" fill="#004143"/><circle cx="3.028" cy="3.028" r="3.028" transform="translate(12.123 284.855)" fill="#004143"/><circle cx="3.243" cy="3.243" r="3.243" transform="translate(42.218 284.635)" fill="#004143"/><circle cx="3.452" cy="3.452" r="3.452" transform="translate(72.302 284.426)" fill="#004143"/><circle cx="3.666" cy="3.666" r="3.666" transform="translate(102.396 284.217)" fill="#004143"/><circle cx="3.876" cy="3.876" r="3.876" transform="translate(132.49 284.008)" fill="#004143"/><circle cx="4.09" cy="4.09" r="4.09" transform="translate(162.584 283.788)" fill="#004143"/><circle cx="4.299" cy="4.299" r="4.299" transform="translate(192.668 283.579)" fill="#004143"/><circle cx="4.514" cy="4.514" r="4.514" transform="translate(305.003 283.37)" fill="#004143"/><circle cx="4.723" cy="4.723" r="4.723" transform="translate(346.887 283.16)" fill="#004143"/><circle cx="4.932" cy="4.932" r="4.932" transform="translate(388.768 282.941)" fill="#004143"/><circle cx="5.146" cy="5.146" r="5.146" transform="translate(430.674 282.731)" fill="#004143"/><circle cx="5.356" cy="5.356" r="5.356" transform="translate(472.59 282.522)" fill="#004143"/><circle cx="5.57" cy="5.57" r="5.57" transform="translate(514.517 282.313)" fill="#004143"/><circle cx="5.779" cy="5.779" r="5.779" transform="translate(556.438 282.104)" fill="#004143"/><circle cx="5.941" cy="5.941" r="5.941" transform="translate(598.442 281.936)" fill="#004143"/><circle cx="5.941" cy="5.941" r="5.941" transform="translate(640.612 281.936)" fill="#004143"/><circle cx="5.941" cy="5.941" r="5.941" transform="translate(682.781 281.936)" fill="#004143"/><circle cx="5.941" cy="5.941" r="5.941" transform="translate(724.951 281.936)" fill="#004143"/><circle cx="5.941" cy="5.941" r="5.941" transform="translate(767.121 281.936)" fill="#004143"/><circle cx="5.941" cy="5.941" r="5.941" transform="translate(809.291 281.936)" fill="#004143"/><circle cx="5.779" cy="5.779" r="5.779" transform="translate(851.6 282.104)" fill="#004143"/><circle cx="5.57" cy="5.57" r="5.57" transform="translate(893.95 282.313)" fill="#004143"/><circle cx="5.356" cy="5.356" r="5.356" transform="translate(936.301 282.522)" fill="#004143"/><circle cx="5.146" cy="5.146" r="5.146" transform="translate(978.63 282.731)" fill="#004143"/><circle cx="4.932" cy="4.932" r="4.932" transform="translate(1020.945 282.941)" fill="#004143"/><circle cx="4.723" cy="4.723" r="4.723" transform="translate(1063.254 283.16)" fill="#004143"/><circle cx="4.514" cy="4.514" r="4.514" transform="translate(1176.308 283.37)" fill="#004143"/><circle cx="4.299" cy="4.299" r="4.299" transform="translate(1206.831 283.579)" fill="#004143"/><circle cx="4.09" cy="4.09" r="4.09" transform="translate(1237.344 283.788)" fill="#004143"/><circle cx="3.876" cy="3.876" r="3.876" transform="translate(1267.856 284.008)" fill="#004143"/><circle cx="3.666" cy="3.666" r="3.666" transform="translate(1298.369 284.217)" fill="#004143"/><circle cx="3.452" cy="3.452" r="3.452" transform="translate(1328.882 284.426)" fill="#004143"/><circle cx="3.243" cy="3.243" r="3.243" transform="translate(1359.405 284.635)" fill="#004143"/></g></svg>